<svg width="252" height="92" viewBox="0 0 252 92" fill="none" xmlns="http://www.w3.org/2000/svg">
<g filter="url(#filter0_d_2820_3612)">
<rect x="4" y="2" width="244" height="90" rx="10" fill="#252B42"/>
<path d="M50.9614 46.1894L57.2233 39.9468L36.9976 28.6144C35.6572 27.8924 34.4014 27.791 33.3002 28.5806L50.9614 46.1894ZM58.2906 53.498L64.8002 49.8479C66.0708 49.1386 66.7675 48.1337 66.7675 47.019C66.7675 45.9065 66.0708 44.8995 64.8023 44.1901L58.9089 40.8905L52.2744 47.5025L58.2906 53.498ZM32.2118 30.1154C32.0762 30.5313 32 30.9957 32 31.5045V62.5484C32 63.3527 32.1779 64.0451 32.4998 64.5961L49.6464 47.5004L32.2118 30.1154ZM50.9614 48.8093L33.9101 65.81C34.2362 65.9346 34.5878 66 34.9584 66C35.6191 66 36.3073 65.8058 37.0082 65.4174L56.6071 54.4459L50.9614 48.8093Z" fill="white"/>
<path d="M96.662 27.214C98.4073 27.214 99.7467 27.6433 100.68 28.502C101.613 29.3513 102.08 30.5367 102.08 32.058C102.08 33.5793 101.623 34.7833 100.708 35.67C99.8027 36.5567 98.4167 37 96.55 37H93.204V27.214H96.662ZM96.774 35.068C97.7727 35.068 98.538 34.816 99.07 34.312C99.6113 33.808 99.882 33.0753 99.882 32.114C99.882 31.1527 99.6113 30.4153 99.07 29.902C98.538 29.3793 97.7167 29.118 96.606 29.118H95.388V35.068H96.774ZM105.634 33.234C105.634 33.85 105.806 34.354 106.152 34.746C106.506 35.1287 106.954 35.32 107.496 35.32C108.046 35.32 108.494 35.1287 108.84 34.746C109.194 34.354 109.372 33.85 109.372 33.234C109.372 32.618 109.194 32.114 108.84 31.722C108.494 31.33 108.046 31.134 107.496 31.134C106.954 31.134 106.506 31.33 106.152 31.722C105.806 32.114 105.634 32.618 105.634 33.234ZM111.486 33.234C111.486 34.326 111.108 35.2453 110.352 35.992C109.596 36.7387 108.644 37.112 107.496 37.112C106.357 37.112 105.41 36.7387 104.654 35.992C103.898 35.2453 103.52 34.326 103.52 33.234C103.52 32.142 103.898 31.2227 104.654 30.476C105.41 29.72 106.357 29.342 107.496 29.342C108.644 29.342 109.596 29.72 110.352 30.476C111.108 31.2227 111.486 32.142 111.486 33.234ZM117.029 37H114.859L112.297 29.468H114.467L115.937 34.018L117.407 29.468H119.437L120.907 34.018L122.377 29.468H124.561L121.999 37H119.815L118.429 32.898L117.029 37ZM128.042 32.8V37H125.942V29.468H128.042V30.308C128.676 29.664 129.39 29.342 130.184 29.342C130.977 29.342 131.64 29.622 132.172 30.182C132.713 30.742 132.984 31.4887 132.984 32.422V37H130.884V32.744C130.884 31.5867 130.459 31.008 129.61 31.008C129.19 31.008 128.821 31.162 128.504 31.47C128.196 31.7687 128.042 32.212 128.042 32.8ZM137.183 37H135.083V26.612H137.183V37ZM141.051 33.234C141.051 33.85 141.224 34.354 141.569 34.746C141.924 35.1287 142.372 35.32 142.913 35.32C143.464 35.32 143.912 35.1287 144.257 34.746C144.612 34.354 144.789 33.85 144.789 33.234C144.789 32.618 144.612 32.114 144.257 31.722C143.912 31.33 143.464 31.134 142.913 31.134C142.372 31.134 141.924 31.33 141.569 31.722C141.224 32.114 141.051 32.618 141.051 33.234ZM146.903 33.234C146.903 34.326 146.525 35.2453 145.769 35.992C145.013 36.7387 144.061 37.112 142.913 37.112C141.774 37.112 140.827 36.7387 140.071 35.992C139.315 35.2453 138.937 34.326 138.937 33.234C138.937 32.142 139.315 31.2227 140.071 30.476C140.827 29.72 141.774 29.342 142.913 29.342C144.061 29.342 145.013 29.72 145.769 30.476C146.525 31.2227 146.903 32.142 146.903 33.234ZM155.061 37H153.087V36.09C152.545 36.7713 151.873 37.112 151.071 37.112C150.277 37.112 149.61 36.8833 149.069 36.426C148.527 35.9593 148.257 35.3433 148.257 34.578C148.257 33.8033 148.537 33.2247 149.097 32.842C149.657 32.4593 150.422 32.268 151.393 32.268H152.961V32.226C152.961 31.4233 152.536 31.022 151.687 31.022C151.323 31.022 150.935 31.0967 150.525 31.246C150.123 31.386 149.783 31.5633 149.503 31.778L148.565 30.42C149.554 29.7013 150.683 29.342 151.953 29.342C152.867 29.342 153.614 29.5707 154.193 30.028C154.771 30.4853 155.061 31.2087 155.061 32.198V37ZM152.947 34.13V33.766H151.631C150.791 33.766 150.371 34.0273 150.371 34.55C150.371 34.8207 150.469 35.0307 150.665 35.18C150.87 35.32 151.159 35.39 151.533 35.39C151.906 35.39 152.233 35.278 152.513 35.054C152.802 34.8207 152.947 34.5127 152.947 34.13ZM160.185 37.112C159.299 37.112 158.505 36.734 157.805 35.978C157.105 35.222 156.755 34.284 156.755 33.164C156.755 32.044 157.096 31.1293 157.777 30.42C158.459 29.7013 159.257 29.342 160.171 29.342C161.086 29.342 161.833 29.664 162.411 30.308V26.612H164.511V37H162.411V36.006C161.823 36.7433 161.081 37.112 160.185 37.112ZM158.869 33.248C158.869 33.8547 159.051 34.354 159.415 34.746C159.779 35.1287 160.204 35.32 160.689 35.32C161.175 35.32 161.585 35.1287 161.921 34.746C162.267 34.354 162.439 33.8547 162.439 33.248C162.439 32.632 162.267 32.1233 161.921 31.722C161.585 31.3113 161.17 31.106 160.675 31.106C160.181 31.106 159.756 31.3113 159.401 31.722C159.047 32.1327 158.869 32.6413 158.869 33.248ZM172.271 33.234C172.271 33.85 172.444 34.354 172.789 34.746C173.144 35.1287 173.592 35.32 174.133 35.32C174.684 35.32 175.132 35.1287 175.477 34.746C175.832 34.354 176.009 33.85 176.009 33.234C176.009 32.618 175.832 32.114 175.477 31.722C175.132 31.33 174.684 31.134 174.133 31.134C173.592 31.134 173.144 31.33 172.789 31.722C172.444 32.114 172.271 32.618 172.271 33.234ZM178.123 33.234C178.123 34.326 177.745 35.2453 176.989 35.992C176.233 36.7387 175.281 37.112 174.133 37.112C172.994 37.112 172.047 36.7387 171.291 35.992C170.535 35.2453 170.157 34.326 170.157 33.234C170.157 32.142 170.535 31.2227 171.291 30.476C172.047 29.72 172.994 29.342 174.133 29.342C175.281 29.342 176.233 29.72 176.989 30.476C177.745 31.2227 178.123 32.142 178.123 33.234ZM181.983 32.8V37H179.883V29.468H181.983V30.308C182.617 29.664 183.331 29.342 184.125 29.342C184.918 29.342 185.581 29.622 186.113 30.182C186.654 30.742 186.925 31.4887 186.925 32.422V37H184.825V32.744C184.825 31.5867 184.4 31.008 183.551 31.008C183.131 31.008 182.762 31.162 182.445 31.47C182.137 31.7687 181.983 32.212 181.983 32.8ZM195.421 30.98V34.354C195.421 34.6433 195.496 34.872 195.645 35.04C195.795 35.1987 195.972 35.278 196.177 35.278C196.569 35.278 196.901 35.1007 197.171 34.746L197.955 36.216C197.302 36.8133 196.611 37.112 195.883 37.112C195.165 37.112 194.553 36.874 194.049 36.398C193.555 35.922 193.307 35.2733 193.307 34.452V30.98H192.425V29.468H193.307V27.214H195.421V29.468H197.241V30.98H195.421ZM201.381 32.94V37H199.281V26.612H201.381V30.308C202.016 29.664 202.725 29.342 203.509 29.342C204.303 29.342 204.97 29.622 205.511 30.182C206.053 30.742 206.323 31.4887 206.323 32.422V37H204.223V32.884C204.223 31.7267 203.799 31.148 202.949 31.148C202.529 31.148 202.161 31.302 201.843 31.61C201.535 31.9087 201.381 32.352 201.381 32.94ZM214.947 35.908C214.098 36.7107 213.099 37.112 211.951 37.112C210.812 37.112 209.87 36.762 209.123 36.062C208.376 35.3527 208.003 34.4053 208.003 33.22C208.003 32.0347 208.381 31.092 209.137 30.392C209.902 29.692 210.803 29.342 211.839 29.342C212.875 29.342 213.752 29.6547 214.471 30.28C215.199 30.9053 215.563 31.764 215.563 32.856V33.976H210.075C210.14 34.3867 210.355 34.7227 210.719 34.984C211.083 35.2453 211.494 35.376 211.951 35.376C212.688 35.376 213.295 35.1287 213.771 34.634L214.947 35.908ZM213.435 32.478C213.388 32.03 213.22 31.6847 212.931 31.442C212.642 31.1993 212.287 31.078 211.867 31.078C211.456 31.078 211.078 31.204 210.733 31.456C210.388 31.708 210.187 32.0487 210.131 32.478H213.435Z" fill="white"/>
<path d="M103.62 59.2H105.98V63.98C104.66 65.4333 102.773 66.16 100.32 66.16C98.2533 66.16 96.52 65.48 95.12 64.12C93.7333 62.76 93.04 61.04 93.04 58.96C93.04 56.88 93.7467 55.1467 95.16 53.76C96.5867 52.3733 98.3067 51.68 100.32 51.68C102.333 51.68 104.007 52.2667 105.34 53.44L104.08 55.24C103.533 54.7733 102.98 54.4533 102.42 54.28C101.873 54.0933 101.233 54 100.5 54C99.0867 54 97.9 54.46 96.94 55.38C95.98 56.2867 95.5 57.4867 95.5 58.98C95.5 60.46 95.9667 61.6533 96.9 62.56C97.8333 63.4533 98.96 63.9 100.28 63.9C101.613 63.9 102.727 63.6133 103.62 63.04V59.2ZM111.437 63.2C112.077 63.84 112.883 64.16 113.857 64.16C114.83 64.16 115.63 63.84 116.257 63.2C116.897 62.5467 117.217 61.7067 117.217 60.68C117.217 59.6533 116.897 58.82 116.257 58.18C115.63 57.5267 114.83 57.2 113.857 57.2C112.883 57.2 112.077 57.5267 111.437 58.18C110.81 58.82 110.497 59.6533 110.497 60.68C110.497 61.7067 110.81 62.5467 111.437 63.2ZM117.857 64.58C116.79 65.6333 115.457 66.16 113.857 66.16C112.257 66.16 110.923 65.6333 109.857 64.58C108.79 63.5133 108.257 62.2133 108.257 60.68C108.257 59.1467 108.79 57.8533 109.857 56.8C110.923 55.7333 112.257 55.2 113.857 55.2C115.457 55.2 116.79 55.7333 117.857 56.8C118.923 57.8533 119.457 59.1467 119.457 60.68C119.457 62.2133 118.923 63.5133 117.857 64.58ZM124.684 63.2C125.324 63.84 126.13 64.16 127.104 64.16C128.077 64.16 128.877 63.84 129.504 63.2C130.144 62.5467 130.464 61.7067 130.464 60.68C130.464 59.6533 130.144 58.82 129.504 58.18C128.877 57.5267 128.077 57.2 127.104 57.2C126.13 57.2 125.324 57.5267 124.684 58.18C124.057 58.82 123.744 59.6533 123.744 60.68C123.744 61.7067 124.057 62.5467 124.684 63.2ZM131.104 64.58C130.037 65.6333 128.704 66.16 127.104 66.16C125.504 66.16 124.17 65.6333 123.104 64.58C122.037 63.5133 121.504 62.2133 121.504 60.68C121.504 59.1467 122.037 57.8533 123.104 56.8C124.17 55.7333 125.504 55.2 127.104 55.2C128.704 55.2 130.037 55.7333 131.104 56.8C132.17 57.8533 132.704 59.1467 132.704 60.68C132.704 62.2133 132.17 63.5133 131.104 64.58ZM145.29 55.36V64.64C145.29 66.52 144.777 67.9267 143.75 68.86C142.737 69.8067 141.43 70.28 139.83 70.28C138.23 70.28 136.784 69.78 135.49 68.78L136.55 67.08C137.59 67.8667 138.637 68.26 139.69 68.26C140.757 68.26 141.597 67.9867 142.21 67.44C142.837 66.8933 143.15 66.02 143.15 64.82V63.46C142.817 64.0867 142.337 64.5867 141.71 64.96C141.097 65.3333 140.404 65.52 139.63 65.52C138.217 65.52 137.057 65.0267 136.15 64.04C135.244 63.0533 134.79 61.8267 134.79 60.36C134.79 58.8933 135.244 57.6667 136.15 56.68C137.057 55.6933 138.21 55.2 139.61 55.2C141.024 55.2 142.17 55.78 143.05 56.94V55.36H145.29ZM136.99 60.28C136.99 61.1467 137.257 61.9 137.79 62.54C138.337 63.1667 139.064 63.48 139.97 63.48C140.89 63.48 141.63 63.1733 142.19 62.56C142.764 61.9467 143.05 61.1867 143.05 60.28C143.05 59.36 142.764 58.5867 142.19 57.96C141.617 57.32 140.877 57 139.97 57C139.064 57 138.337 57.3267 137.79 57.98C137.257 58.6333 136.99 59.4 136.99 60.28ZM150.976 66H148.736V51.16H150.976V66ZM164.325 61.66H155.985C156.038 62.4333 156.391 63.06 157.045 63.54C157.698 64.0067 158.445 64.24 159.285 64.24C160.618 64.24 161.631 63.82 162.325 62.98L163.605 64.38C162.458 65.5667 160.965 66.16 159.125 66.16C157.631 66.16 156.358 65.6667 155.305 64.68C154.265 63.68 153.745 62.3467 153.745 60.68C153.745 59 154.278 57.6667 155.345 56.68C156.411 55.6933 157.665 55.2 159.105 55.2C160.558 55.2 161.791 55.64 162.805 56.52C163.818 57.3867 164.325 58.5867 164.325 60.12V61.66ZM155.985 59.9H162.085C162.085 59.0067 161.805 58.32 161.245 57.84C160.685 57.36 159.991 57.12 159.165 57.12C158.351 57.12 157.618 57.3733 156.965 57.88C156.311 58.3733 155.985 59.0467 155.985 59.9ZM177.796 52.02C179.916 52.02 181.463 52.4267 182.436 53.24C183.41 54.0533 183.896 55.3067 183.896 57C183.896 58.6933 183.396 59.9333 182.396 60.72C181.41 61.5067 179.89 61.9 177.836 61.9H175.356V66H172.996V52.02H177.796ZM178.096 59.76C179.403 59.76 180.29 59.5133 180.756 59.02C181.236 58.5133 181.476 57.78 181.476 56.82C181.476 55.8467 181.176 55.16 180.576 54.76C179.976 54.36 179.036 54.16 177.756 54.16H175.356V59.76H178.096ZM188.788 66H186.548V51.16H188.788V66ZM200.856 66H198.816V64.58C197.936 65.6333 196.756 66.16 195.276 66.16C194.17 66.16 193.25 65.8467 192.516 65.22C191.796 64.5933 191.436 63.76 191.436 62.72C191.436 61.6667 191.823 60.88 192.596 60.36C193.37 59.84 194.416 59.58 195.736 59.58H198.636V59.18C198.636 57.7667 197.85 57.06 196.276 57.06C195.29 57.06 194.263 57.42 193.196 58.14L192.196 56.74C193.49 55.7133 194.956 55.2 196.596 55.2C197.85 55.2 198.87 55.52 199.656 56.16C200.456 56.7867 200.856 57.78 200.856 59.14V66ZM198.616 62.04V61.14H196.096C194.483 61.14 193.676 61.6467 193.676 62.66C193.676 63.18 193.876 63.58 194.276 63.86C194.676 64.1267 195.23 64.26 195.936 64.26C196.656 64.26 197.283 64.06 197.816 63.66C198.35 63.26 198.616 62.72 198.616 62.04ZM205.398 70.24C204.424 70.24 203.544 69.8867 202.758 69.18L203.778 67.36C204.244 67.8 204.724 68.02 205.218 68.02C205.724 68.02 206.131 67.84 206.438 67.48C206.758 67.12 206.918 66.7267 206.918 66.3C206.918 66.1133 205.484 62.4667 202.618 55.36H205.018L208.198 63.2L211.378 55.36H213.778L208.618 68C208.311 68.6933 207.871 69.24 207.298 69.64C206.724 70.04 206.091 70.24 205.398 70.24Z" fill="white"/>
<rect x="4.5" y="2.5" width="243" height="89" rx="9.5" stroke="#BDBDBD"/>
</g>
<defs>
<filter id="filter0_d_2820_3612" x="0" y="0" width="252" height="98" filterUnits="userSpaceOnUse" color-interpolation-filters="sRGB">
<feFlood flood-opacity="0" result="BackgroundImageFix"/>
<feColorMatrix in="SourceAlpha" type="matrix" values="0 0 0 0 0 0 0 0 0 0 0 0 0 0 0 0 0 0 127 0" result="hardAlpha"/>
<feOffset dy="2"/>
<feGaussianBlur stdDeviation="2"/>
<feColorMatrix type="matrix" values="0 0 0 0 0 0 0 0 0 0 0 0 0 0 0 0 0 0 0.1 0"/>
<feBlend mode="normal" in2="BackgroundImageFix" result="effect1_dropShadow_2820_3612"/>
<feBlend mode="normal" in="SourceGraphic" in2="effect1_dropShadow_2820_3612" result="shape"/>
</filter>
</defs>
</svg>
