<svg width="23" height="24" viewBox="0 0 23 24" fill="none" xmlns="http://www.w3.org/2000/svg">
<path d="M21.1116 9.41256C21.054 9.24274 20.9479 9.09353 20.8064 8.98335C20.6649 8.87316 20.4942 8.80681 20.3155 8.79251L15.0863 8.377L12.8235 3.36798C12.7515 3.20665 12.6342 3.06963 12.486 2.97344C12.3378 2.87726 12.1649 2.82602 11.9882 2.82593C11.8115 2.82583 11.6386 2.87687 11.4902 2.9729C11.3419 3.06892 11.2246 3.20582 11.1523 3.36707L8.8895 8.377L3.66035 8.79251C3.48466 8.80642 3.3167 8.87066 3.17656 8.97754C3.03642 9.08442 2.93004 9.2294 2.87015 9.39516C2.81025 9.56091 2.79938 9.74041 2.83882 9.91218C2.87827 10.0839 2.96637 10.2407 3.09258 10.3637L6.95689 14.1308L5.59021 20.0488C5.54871 20.2279 5.56201 20.4154 5.62838 20.5869C5.69476 20.7584 5.81114 20.9059 5.96242 21.0105C6.11371 21.115 6.29292 21.1716 6.47679 21.173C6.66067 21.1744 6.84072 21.1205 6.99358 21.0183L11.9879 17.6888L16.9823 21.0183C17.1385 21.1221 17.3228 21.1755 17.5102 21.1713C17.6977 21.1672 17.8795 21.1058 18.031 20.9953C18.1826 20.8848 18.2966 20.7306 18.3579 20.5533C18.4192 20.3761 18.4247 20.1843 18.3737 20.0039L16.6961 14.1336L20.8567 10.3894C21.1291 10.1436 21.2291 9.76019 21.1116 9.41256Z" fill="#F3CD03"/>
</svg>
